<svg xmlns="http://www.w3.org/2000/svg" viewBox="-24060 -11008 77.361 83">
  <defs>
    <style>
      .cls-1 {
        fill: #42b4d6;
      }

      .cls-2 {
        fill: #fff;
      }
    </style>
  </defs>
  <g id="_10_casinos" data-name="10_casinos" transform="translate(-24060 -11007.996)">
    <path id="Path_1" data-name="Path 1" class="cls-1" d="M57.693,64.393V25.884a7.772,7.772,0,0,1,2.318-5.7,7.592,7.592,0,0,1,5.616-2.354,8.023,8.023,0,0,1,8.023,8.05V64.393H88.025V26.18A21.348,21.348,0,0,0,81.637,10.61,21.069,21.069,0,0,0,66.066,4.15,21.285,21.285,0,0,0,50.5,10.574,21.186,21.186,0,0,0,44,26.18V64.393Z" transform="translate(-10.675 -4.15)"/>
    <path id="Path_2" data-name="Path 2" class="cls-1" d="M18.734,64.526H32.607V5.46H22.912a18.5,18.5,0,0,1-6.5,7.745A20.458,20.458,0,0,1,6.91,16.988v9.695H18.734Z" transform="translate(-6.91 -4.283)"/>
    <path id="Path_3" data-name="Path 3" class="cls-2" d="M28.778,87.253v2.462a4.951,4.951,0,0,1-1.1,3.45,4.169,4.169,0,0,1-3.244,1.2,4.169,4.169,0,0,1-3.244-1.2,4.951,4.951,0,0,1-1.1-3.45V80.083a4.951,4.951,0,0,1,1.1-3.45,4.169,4.169,0,0,1,3.244-1.2,4.169,4.169,0,0,1,3.244,1.2,4.951,4.951,0,0,1,1.1,3.45v1.8H26.029V79.894a1.968,1.968,0,0,0-.413-1.42,1.671,1.671,0,0,0-2.2,0A1.968,1.968,0,0,0,23,79.894V89.9a1.914,1.914,0,0,0,.413,1.4,1.716,1.716,0,0,0,2.2,0,1.914,1.914,0,0,0,.413-1.4V87.253Z" transform="translate(-8.248 -11.385)"/>
    <path id="Path_4" data-name="Path 4" class="cls-2" d="M41.014,94.187H38.076l-.5-3.36H33.979l-.5,3.36h-2.7L33.745,75.66H38Zm-6.64-5.876h2.8l-1.411-9.371Z" transform="translate(-9.333 -11.41)"/>
    <path id="Path_5" data-name="Path 5" class="cls-2" d="M43.241,80.082a5.031,5.031,0,0,1,1.069-3.45,4.088,4.088,0,0,1,3.2-1.213,4.088,4.088,0,0,1,3.217,1.2,5.032,5.032,0,0,1,1.069,3.45v.719H49.063v-.9a2.067,2.067,0,0,0-.386-1.42,1.608,1.608,0,0,0-2.147,0,2.058,2.058,0,0,0-.386,1.42,3.28,3.28,0,0,0,.467,1.68,6.972,6.972,0,0,0,1.06,1.375q.638.647,1.366,1.294a12.9,12.9,0,0,1,1.366,1.42,7.188,7.188,0,0,1,1.06,1.743,5.768,5.768,0,0,1,.422,2.3,4.951,4.951,0,0,1-1.1,3.45,4.169,4.169,0,0,1-3.279,1.213,4.169,4.169,0,0,1-3.244-1.2,4.951,4.951,0,0,1-1.1-3.45V88.447h2.749V89.9a1.914,1.914,0,0,0,.413,1.4,1.716,1.716,0,0,0,2.2,0,1.923,1.923,0,0,0,.413-1.4,3.289,3.289,0,0,0-.422-1.68,7.017,7.017,0,0,0-1.06-1.375q-.638-.647-1.366-1.294a12.857,12.857,0,0,1-1.366-1.42,7.188,7.188,0,0,1-1.06-1.743A5.759,5.759,0,0,1,43.241,80.082Z" transform="translate(-10.59 -11.384)"/>
    <rect id="Rectangle_1" data-name="Rectangle 1" class="cls-2" width="2.911" height="18.527" transform="translate(42.768 64.43)"/>
    <path id="Path_7" data-name="Path 7" class="cls-2" d="M62.385,80.763V94.187H59.77V75.66h3.657L66.41,86.747V75.66h2.552V94.187H66.014Z" transform="translate(-12.276 -11.41)"/>
    <path id="Path_8" data-name="Path 8" class="cls-2" d="M71.9,80.084a4.843,4.843,0,0,1,1.141-3.45,5.076,5.076,0,0,1,6.568,0,4.843,4.843,0,0,1,1.141,3.45v9.632a4.843,4.843,0,0,1-1.141,3.45,5.076,5.076,0,0,1-6.568,0,4.834,4.834,0,0,1-1.141-3.45ZM74.81,89.9a1.968,1.968,0,0,0,.413,1.42,1.68,1.68,0,0,0,2.2,0,1.968,1.968,0,0,0,.413-1.42V79.9a1.968,1.968,0,0,0-.458-1.42,1.671,1.671,0,0,0-2.2,0,1.968,1.968,0,0,0-.413,1.42Z" transform="translate(-13.507 -11.387)"/>
    <path id="Path_9" data-name="Path 9" class="cls-2" d="M83.393,80.084a5.032,5.032,0,0,1,1.069-3.45,4.9,4.9,0,0,1,6.433,0,5.031,5.031,0,0,1,1.069,3.45V80.8H89.215v-.9a2.066,2.066,0,0,0-.386-1.42,1.608,1.608,0,0,0-2.147,0,2.058,2.058,0,0,0-.386,1.42,3.28,3.28,0,0,0,.422,1.68,6.972,6.972,0,0,0,1.06,1.375q.638.647,1.366,1.294a12.9,12.9,0,0,1,1.366,1.42,7.188,7.188,0,0,1,1.06,1.743,5.768,5.768,0,0,1,.449,2.3,4.371,4.371,0,0,1-7.583,3.45,4.951,4.951,0,0,1-1.1-3.45V88.449h2.749V89.9a1.914,1.914,0,0,0,.413,1.4,1.716,1.716,0,0,0,2.2,0,1.923,1.923,0,0,0,.413-1.4,3.289,3.289,0,0,0-.422-1.68,7.017,7.017,0,0,0-1.06-1.375Q87,86.2,86.268,85.556a12.858,12.858,0,0,1-1.438-1.429,7.188,7.188,0,0,1-1.06-1.743A5.759,5.759,0,0,1,83.393,80.084Z" transform="translate(-14.668 -11.387)"/>
  </g>
</svg>
