<svg xmlns="http://www.w3.org/2000/svg" width="24.23" height="30" viewBox="0 0 24.23 30"><defs><style>.a{fill:#2171ce;}</style></defs><path class="a" d="M463.58,92.123l-1.022,1.024-1.025-1.024a2.106,2.106,0,0,0-2.978,2.979l4,4,4-4a2.106,2.106,0,0,0-2.978-2.979ZM474.671,78h-15a2.315,2.315,0,0,0-2.308,2.308v2.308h-2.307a2.309,2.309,0,0,0-2.308,2.308v20.769A2.31,2.31,0,0,0,455.056,108h15a2.31,2.31,0,0,0,2.308-2.308v-2.308h2.307a2.314,2.314,0,0,0,2.308-2.308V80.308A2.315,2.315,0,0,0,474.671,78Zm-4.619,27.308a.386.386,0,0,1-.385.385H455.44a.386.386,0,0,1-.385-.385v-20a.386.386,0,0,1,.385-.385h14.231a.386.386,0,0,1,.385.385Z" transform="translate(-452.748 -78)"/></svg>