<svg xmlns="http://www.w3.org/2000/svg" width="27.908" height="30" viewBox="0 0 27.908 30"><defs><style>.a{fill:#2171ce;}</style></defs><path class="a" d="M2.957,30A2.956,2.956,0,0,1,0,27.045V2.957A2.957,2.957,0,0,1,2.957,0h22a2.955,2.955,0,0,1,2.955,2.957V27.045A2.955,2.955,0,0,1,24.953,30Zm15.517-2.759h4.039a2.956,2.956,0,0,0,2.956-2.955V21.528H18.474Zm-7.981,0h6.8V21.528h-6.8Zm-7.98-2.955a2.956,2.956,0,0,0,2.956,2.955H9.311V21.528h-6.8Zm0-3.94h6.8V15.223h-6.8Zm15.961,0h6.995V15.222H18.474Zm-7.981,0h6.8V15.222h-6.8Zm7.981-6.3h6.995V11.478a2.956,2.956,0,0,0-2.956-2.955H18.474Zm-7.981,0h6.8V8.522h-6.8Zm-7.98-2.562v2.561h6.8V8.522H5.468A2.956,2.956,0,0,0,2.513,11.478ZM19.526,4.4a2.213,2.213,0,0,0,2.205,2.431A2.257,2.257,0,0,0,24.015,4.31,2.208,2.208,0,0,0,21.8,1.885,2.3,2.3,0,0,0,19.526,4.4ZM14.8,4.4a2.394,2.394,0,0,0,.666,1.758,2.592,2.592,0,0,0,1.879.639,4.713,4.713,0,0,0,1.532-.271V4.111H17.193V4.8h.843V6a1.835,1.835,0,0,1-.66.093,1.579,1.579,0,0,1-1.659-1.73,1.6,1.6,0,0,1,1.736-1.716,2.477,2.477,0,0,1,1.085.205l.19-.7a3.164,3.164,0,0,0-1.27-.227A2.428,2.428,0,0,0,14.8,4.4ZM4.3,2.042h0V6.735a8.487,8.487,0,0,0,1.07.064,2.715,2.715,0,0,0,1.78-.44A1.286,1.286,0,0,0,7.6,5.367,1.2,1.2,0,0,0,6.637,4.19V4.168a1.1,1.1,0,0,0,.794-1.027,1.011,1.011,0,0,0-.5-.9,2.289,2.289,0,0,0-1.361-.305A7.2,7.2,0,0,0,4.3,2.042Zm7.589,2.6L13.134,6.75h.907V1.971h-.808V3.638a19.455,19.455,0,0,0,.078,1.984H13.3a14.534,14.534,0,0,0-.814-1.6L11.248,1.97h-1V6.75h.81V5.04c0-.787-.015-1.418-.049-2.034L11.035,3A16.236,16.236,0,0,0,11.886,4.644Zm-3.5,2.1h.873V1.97H8.383Zm11.982-2.2c0-1.025.479-1.858,1.378-1.858s1.37.885,1.37,1.821c0,1.038-.493,1.856-1.37,1.856S20.365,5.563,20.365,4.546ZM5.15,6.17V4.549H5.6c.626,0,1.135.235,1.135.818,0,.611-.523.824-1.1.826A2.857,2.857,0,0,1,5.15,6.17Zm0-2.089V2.718a2.526,2.526,0,0,1,.515-.037c.575,0,.928.214.928.686,0,.42-.347.714-.98.714Z"/></svg>