<svg xmlns="http://www.w3.org/2000/svg" width="38.341" height="31.113" viewBox="0 0 38.341 31.113"><defs><style>.a{fill:#2171ce;stroke:rgba(0,0,0,0);stroke-miterlimit:10;}</style></defs><path class="a" d="M8.968,28.367.216,8.5A2.614,2.614,0,0,1,1.723,5.019L13.889.205a2.865,2.865,0,0,1,3.667,1.429L19.345,5.7l.788-2.82a2.282,2.282,0,0,1,2.762-1.52L35.641,4.533A2.132,2.132,0,0,1,37.25,7.142L31.456,27.894a2.284,2.284,0,0,1-2.762,1.52L18.147,26.786l-1.73-.432-.469-.116a2.133,2.133,0,0,1-1.608-2.609l3.747-13.419.456-1.635.346-1.24-2.336-5.3a1.752,1.752,0,0,0-2.244-.874L2.143,5.972A1.6,1.6,0,0,0,1.221,8.1L9.973,27.97a1.752,1.752,0,0,0,2.244.874l3.818-1.511a4.237,4.237,0,0,0,1.252.623l-4.65,1.84A2.92,2.92,0,0,1,11.56,30,2.816,2.816,0,0,1,8.968,28.367Zm18.586-2.672a.643.643,0,0,0-.141.254.961.961,0,0,0,.017.716c.042.094.083.187.128.277a5.5,5.5,0,0,0,.875,1.218.048.048,0,0,0,.061.01c.209-.083.423-.157.631-.246a4.734,4.734,0,0,0,1.007-.576,1.027,1.027,0,0,0,.408-.724.871.871,0,0,0-1.163-.866,2.033,2.033,0,0,0-.223.1,1.385,1.385,0,0,1,.268-.317,1.927,1.927,0,0,1,.843-.418h0l-.026-.092a2.152,2.152,0,0,1-1.674-.417l-.089.063a1.792,1.792,0,0,1,.516.755,1.344,1.344,0,0,1,.067.413.825.825,0,0,0-.5-.43,1.039,1.039,0,0,0-.319-.053A.927.927,0,0,0,27.554,25.694Zm-1.084-6.769.168-.119a3.361,3.361,0,0,1-.969-1.422,2.426,2.426,0,0,1-.125-.775,1.554,1.554,0,0,0,.936.809,1.7,1.7,0,0,0,1.892-.526,1.255,1.255,0,0,0,.265-.477,1.815,1.815,0,0,0-.032-1.347c-.079-.174-.155-.349-.242-.52a10.265,10.265,0,0,0-1.643-2.287.09.09,0,0,0-.114-.02c-.4.154-.8.3-1.186.464a8.912,8.912,0,0,0-1.893,1.082,1.934,1.934,0,0,0-.768,1.359,1.638,1.638,0,0,0,2.185,1.629,3.447,3.447,0,0,0,.419-.189,2.615,2.615,0,0,1-.5.6,3.644,3.644,0,0,1-1.586.785h0l.046.172c.18-.014.352-.02.515-.02A3.776,3.776,0,0,1,26.469,18.926ZM23.024,6.157l.089-.063a1.79,1.79,0,0,1-.516-.757,1.336,1.336,0,0,1-.066-.412.824.824,0,0,0,.5.43.9.9,0,0,0,1.005-.279.652.652,0,0,0,.143-.255.971.971,0,0,0-.018-.717c-.042-.092-.083-.185-.128-.277a5.51,5.51,0,0,0-.875-1.217.047.047,0,0,0-.06-.01c-.21.083-.424.157-.632.247a4.786,4.786,0,0,0-1.006.576,1.032,1.032,0,0,0-.41.724.873.873,0,0,0,1.164.866,2.056,2.056,0,0,0,.223-.1,1.39,1.39,0,0,1-.268.318,1.92,1.92,0,0,1-.844.416h0l.025.092c.1-.007.188-.011.275-.011A2.009,2.009,0,0,1,23.024,6.157ZM12.385,18.6h0a2.2,2.2,0,0,0,.7-1.5,3.81,3.81,0,0,0-.238-1.246,1.56,1.56,0,0,1-.948,1.5,1.4,1.4,0,1,1-1.08-2.585,1.566,1.566,0,0,1,1.7.343,3.79,3.79,0,0,0-.312-.493,1.552,1.552,0,0,1-1.65-.938A1.4,1.4,0,1,1,13.138,12.6a1.555,1.555,0,0,1-.486,1.826,3.8,3.8,0,0,0,.125.562,1.568,1.568,0,0,1,.952-1.439,1.4,1.4,0,0,1,1.08,2.585,1.559,1.559,0,0,1-1.739-.387,3.535,3.535,0,0,0,.724,1.056,2.328,2.328,0,0,0,1.555.559l-.053.187a3.6,3.6,0,0,0-2.773,1.157Zm-9-8.772h0a1.188,1.188,0,0,0,.375-.809A2.033,2.033,0,0,0,3.63,8.35a.843.843,0,0,1-.513.807.755.755,0,0,1-.581-1.394.843.843,0,0,1,.916.185,1.958,1.958,0,0,0-.168-.267.837.837,0,0,1-.89-.5.756.756,0,0,1,1.395-.583.838.838,0,0,1-.261.985,2.027,2.027,0,0,0,.068.3.846.846,0,0,1,.512-.776A.756.756,0,0,1,4.69,8.5a.843.843,0,0,1-.937-.209,1.888,1.888,0,0,0,.39.57,1.257,1.257,0,0,0,.838.3l-.028.1a1.945,1.945,0,0,0-1.5.624Z" transform="translate(0.51 0.612)"/></svg>