<!-- Generated by IcoMoon.io -->
<svg version="1.1" xmlns="http://www.w3.org/2000/svg" width="32" height="32" viewBox="0 0 32 32">
<title>close_icon</title>
<path fill="#929292" d="M27.899 31.296l-11.898-11.898-11.898 11.898c-0.435 0.435-1.036 0.704-1.699 0.704-1.328 0-2.404-1.076-2.404-2.404 0-0.664 0.269-1.265 0.705-1.701l11.898-11.896-11.898-11.898c-0.453-0.438-0.734-1.050-0.734-1.729 0-1.327 1.076-2.404 2.404-2.404 0.678 0 1.291 0.281 1.728 0.733l0.001 0.001 11.898 11.898 11.898-11.898c0.432-0.417 1.021-0.675 1.67-0.675 1.328 0 2.404 1.076 2.404 2.404 0 0.649-0.257 1.238-0.675 1.671l0.001-0.001-11.898 11.898 11.898 11.896c0.435 0.435 0.705 1.036 0.705 1.701 0 1.328-1.076 2.404-2.404 2.404-0.664 0-1.264-0.269-1.699-0.704v0z"></path>
</svg>
