<svg xmlns="http://www.w3.org/2000/svg" width="49.962" height="31.179" viewBox="0 0 49.962 31.179"><defs><style>.a{fill:#2171ce;stroke:rgba(0,0,0,0);stroke-miterlimit:10;}</style></defs><path class="a" d="M9.7,28.42.451,13.409A3.078,3.078,0,0,1,1.685,9.075L17.611.425a3.51,3.51,0,0,1,4.617,1.157l1.263,2.05c-.012.037-.026.074-.036.112L21.534,9.988a2.6,2.6,0,0,0-1.755.258,2.246,2.246,0,0,0-.9,3.174,2.435,2.435,0,0,0,1.289,1.017L18.329,20.4A5.169,5.169,0,0,0,20.5,26.222L14.32,29.576A3.528,3.528,0,0,1,12.636,30,3.436,3.436,0,0,1,9.7,28.42ZM13.209,21.3a2.245,2.245,0,0,0-.9,3.172,2.562,2.562,0,0,0,3.379.848,2.248,2.248,0,0,0,.9-3.174,2.509,2.509,0,0,0-2.144-1.159A2.582,2.582,0,0,0,13.209,21.3ZM9.753,15.692a2.247,2.247,0,0,0-.9,3.173,2.564,2.564,0,0,0,3.38.848,2.245,2.245,0,0,0,.9-3.173,2.509,2.509,0,0,0-2.144-1.16A2.584,2.584,0,0,0,9.753,15.692ZM6.217,10.125a2.246,2.246,0,0,0-.9,3.174,2.564,2.564,0,0,0,3.38.846,2.246,2.246,0,0,0,.9-3.173,2.509,2.509,0,0,0-2.145-1.16A2.584,2.584,0,0,0,6.217,10.125ZM16.243,4.68a2.246,2.246,0,0,0-.9,3.173,2.565,2.565,0,0,0,3.38.848,2.248,2.248,0,0,0,.9-3.174,2.507,2.507,0,0,0-2.144-1.159A2.589,2.589,0,0,0,16.243,4.68ZM39.5,29.712,21.824,24.944a3.139,3.139,0,0,1-2.307-3.907L24.64,4.463a3.429,3.429,0,0,1,4.183-2.157L46.5,7.074a3.143,3.143,0,0,1,2.31,3.907L43.685,27.555a3.369,3.369,0,0,1-3.252,2.28A3.589,3.589,0,0,1,39.5,29.712ZM35.785,21.93a2.294,2.294,0,0,0,1.69,2.861,2.5,2.5,0,0,0,3.063-1.578,2.294,2.294,0,0,0-1.691-2.861,2.634,2.634,0,0,0-.687-.091A2.459,2.459,0,0,0,35.785,21.93Zm-11.127-3a2.291,2.291,0,0,0,1.688,2.861,2.5,2.5,0,0,0,3.063-1.578,2.29,2.29,0,0,0-1.69-2.86,2.626,2.626,0,0,0-.689-.092A2.453,2.453,0,0,0,24.658,18.929Zm14.259-7.121a2.289,2.289,0,0,0,1.688,2.86,2.5,2.5,0,0,0,3.064-1.577,2.3,2.3,0,0,0-1.69-2.861,2.633,2.633,0,0,0-.687-.091A2.456,2.456,0,0,0,38.917,11.807Zm-11.13-3a2.292,2.292,0,0,0,1.691,2.861,2.5,2.5,0,0,0,3.061-1.579A2.292,2.292,0,0,0,30.85,7.226a2.64,2.64,0,0,0-.688-.091A2.456,2.456,0,0,0,27.787,8.805Z" transform="translate(0.51 0.679)"/></svg>