<svg xmlns="http://www.w3.org/2000/svg" xmlns:xlink="http://www.w3.org/1999/xlink" width="30" height="30" viewBox="0 0 30 30"><defs><clipPath id="a"><rect width="15" height="15" fill="none"/></clipPath></defs><g transform="translate(-30)"><g transform="translate(30)" fill="#2171ce" stroke="#2171ce" stroke-width="1"><path d="M0,0H26a4,4,0,0,1,4,4V26a4,4,0,0,1-4,4H0a0,0,0,0,1,0,0V0A0,0,0,0,1,0,0Z" stroke="none"/><path d="M1,.5H26A3.5,3.5,0,0,1,29.5,4V26A3.5,3.5,0,0,1,26,29.5H1A.5.5,0,0,1,.5,29V1A.5.5,0,0,1,1,.5Z" fill="none"/></g><g transform="translate(53 23) rotate(180)" clip-path="url(#a)"><g transform="translate(-1389 -329)"><rect width="15" height="6" rx="1" transform="translate(1389 329)" fill="#fff"/></g><g transform="translate(-1389 -320)"><rect width="15" height="6" rx="1" transform="translate(1389 329)" fill="#fff"/></g></g></g></svg>