<svg xmlns="http://www.w3.org/2000/svg" width="26.828" height="30" viewBox="0 0 26.828 30"><defs><style>.a{fill:#2171ce;fill-rule:evenodd;}</style></defs><path class="a" d="M2380.014,630.25h-.185l-2.869-4.347,4.146-4.043a.609.609,0,0,0,.192-.441v-9.838a.609.609,0,0,0-.192-.441l-7.131-6.956a.656.656,0,0,0-.454-.183h-10.092a.654.654,0,0,0-.454.183l-7.131,6.956a.609.609,0,0,0-.192.442v9.837a.606.606,0,0,0,.192.442l4.146,4.043-2.869,4.347h-.185a1.875,1.875,0,1,0,0,3.75h3.846a1.9,1.9,0,0,0,1.923-1.875,1.875,1.875,0,0,0-1.123-1.7l1.192-1.8.2.2a.655.655,0,0,0,.454.183h10.092a.656.656,0,0,0,.454-.183l.2-.2,1.192,1.8a1.876,1.876,0,0,0-1.123,1.7,1.9,1.9,0,0,0,1.923,1.875h3.846a1.875,1.875,0,1,0,0-3.75Zm-3.231-5.938a2.06,2.06,0,0,0,.023-.308,1.923,1.923,0,0,0-2.308-1.836l-2.3-3.483,7.323,2.958Zm3.231-3.828-9-3.635a2.681,2.681,0,0,0,0-.7l9-3.634v7.966Zm-6.269-14.754,5.777,5.633-9,3.635a2.588,2.588,0,0,0-.508-.493Zm-1.185-.479-3.731,8.775a2.476,2.476,0,0,0-.708,0l-3.731-8.775Zm-5.369,11.25a1.285,1.285,0,1,1,1.284,1.25A1.269,1.269,0,0,1,2367.191,616.5Zm2.715,5.631c-.054,0-.1-.005-.146-.005a1.965,1.965,0,0,1-2.569,0,1.184,1.184,0,0,0-.139.005l1.423-2.164Zm-6.7-16.4,3.731,8.775a2.57,2.57,0,0,0-.508.493l-9-3.635Zm-6.269,6.788,9,3.634a2.681,2.681,0,0,0,0,.7l-9,3.635Zm.492,9.121,7.323-2.958-2.3,3.483a1.923,1.923,0,0,0-2.308,1.836,2.093,2.093,0,0,0,.023.308Zm2.554,8.9a.6.6,0,0,0-.023.638.644.644,0,0,0,.562.326h.261a.624.624,0,1,1,0,1.248h-3.846a.624.624,0,0,1,0-1.248h.538a.656.656,0,0,0,.539-.288L2366.6,618.2a2.491,2.491,0,0,0,1.077.677Zm5.931-3.413a.625.625,0,1,1,.559-.306.625.625,0,0,1-.559.306Zm1.277-2.5a.625.625,0,1,1,.56-.306.625.625,0,0,1-.56.306Zm1.284,2.5a.625.625,0,1,1,.638-.624.631.631,0,0,1-.638.624Zm1.284-2.5a.631.631,0,1,1,.449-.18A.626.626,0,0,1,2369.76,624.624Zm1.277,2.5a.625.625,0,1,1,.559-.306.625.625,0,0,1-.559.306Zm8.977,5.625h-3.846a.624.624,0,0,1,0-1.248h.261a.634.634,0,0,0,.562-.326.6.6,0,0,0-.023-.638l-7.692-11.663a2.562,2.562,0,0,0,1.085-.678l8.576,13.017a.656.656,0,0,0,.539.288h.538a.624.624,0,1,1,0,1.248Z" transform="translate(-2355.062 -604)"/></svg>