<svg xmlns="http://www.w3.org/2000/svg" width="30" height="30" viewBox="0 0 30 30"><defs><style>.a{fill:#2171ce;}</style></defs><path class="a" d="M286.861,77.855a15,15,0,1,0,15,15A15,15,0,0,0,286.861,77.855Zm12.288,9.918a13.175,13.175,0,0,1,.9,3.369l-2.866.376a10.337,10.337,0,0,0-.7-2.637Zm-4.2-5.461a13.431,13.431,0,0,1,2.463,2.466l-2.293,1.758a10.5,10.5,0,0,0-1.928-1.931Zm-6.363-2.64a13.216,13.216,0,0,1,3.37.9l-1.108,2.67a10.317,10.317,0,0,0-2.638-.706Zm-3.462,0,.376,2.866a10.331,10.331,0,0,0-2.638.707l-1.107-2.67A13.192,13.192,0,0,1,285.129,79.673Zm-6.362,2.641,1.758,2.293a10.473,10.473,0,0,0-1.927,1.931l-2.293-1.758A13.405,13.405,0,0,1,278.768,82.313Zm-4.194,5.461,2.67,1.108a10.316,10.316,0,0,0-.7,2.635l-2.866-.376A13.187,13.187,0,0,1,274.573,87.774Zm.01,10.188a13.179,13.179,0,0,1-.9-3.363l2.866-.376a10.306,10.306,0,0,0,.708,2.632Zm4.2,5.446a13.406,13.406,0,0,1-2.462-2.459l2.293-1.757a10.472,10.472,0,0,0,1.927,1.923Zm6.351,2.63a13.2,13.2,0,0,1-3.362-.9l1.107-2.67a10.317,10.317,0,0,0,2.631.7Zm3.454,0-.376-2.866a10.322,10.322,0,0,0,2.631-.7l1.107,2.67A13.191,13.191,0,0,1,288.586,106.038Zm-1.725-5.088a8.095,8.095,0,1,1,8.1-8.095A8.1,8.1,0,0,1,286.861,100.95Zm8.077,2.46-1.758-2.293a10.493,10.493,0,0,0,1.928-1.924l2.293,1.758A13.422,13.422,0,0,1,294.938,103.41Zm4.2-5.446-2.67-1.108a10.313,10.313,0,0,0,.708-2.632l2.866.376A13.228,13.228,0,0,1,299.138,97.964Zm-6.979-6.156a1.029,1.029,0,0,0-.539.149c-.014.01-.029.017-.042.028a2.148,2.148,0,0,1-1.18.354H288.72a1.925,1.925,0,0,0-1.328-1.318V89.333a2.147,2.147,0,0,1,.354-1.179,1.025,1.025,0,0,0,.177-.581,1.062,1.062,0,1,0-2.125,0,1.033,1.033,0,0,0,.148.538c.011.015.018.029.029.043a2.141,2.141,0,0,1,.354,1.179v1.7a1.924,1.924,0,0,0-1.3,1.309h-1.707a2.141,2.141,0,0,1-1.18-.354,1.022,1.022,0,0,0-.581-.177,1.062,1.062,0,1,0,0,2.125,1.026,1.026,0,0,0,.538-.149c.014-.01.029-.017.042-.028a2.144,2.144,0,0,1,1.18-.354h1.707a1.923,1.923,0,0,0,1.3,1.309v1.7a2.138,2.138,0,0,1-.354,1.179,1.026,1.026,0,0,0-.177.581,1.062,1.062,0,0,0,2.124,0,1.029,1.029,0,0,0-.149-.538c-.01-.014-.017-.029-.028-.043a2.142,2.142,0,0,1-.355-1.179V94.72A1.924,1.924,0,0,0,288.72,93.4H290.4a2.139,2.139,0,0,1,1.18.354,1.022,1.022,0,0,0,.581.177,1.063,1.063,0,0,0,0-2.125Z" transform="translate(-271.861 -77.855)"/></svg>