<svg xmlns="http://www.w3.org/2000/svg" width="30" height="30" viewBox="0 0 30 30"><defs><style>.a{fill:#2171ce;}.a,.b{stroke:#2171ce;stroke-width:2px;}.b,.d{fill:none;}.c{stroke:none;}</style></defs><g class="a"><rect class="c" width="8" height="8"/><rect class="d" x="1" y="1" width="6" height="6"/></g><g class="b" transform="translate(11)"><rect class="c" width="8" height="8"/><rect class="d" x="1" y="1" width="6" height="6"/></g><g class="b" transform="translate(22)"><rect class="c" width="8" height="8"/><rect class="d" x="1" y="1" width="6" height="6"/></g><g class="b" transform="translate(0 11)"><rect class="c" width="8" height="8"/><rect class="d" x="1" y="1" width="6" height="6"/></g><g class="a" transform="translate(11 11)"><rect class="c" width="8" height="8"/><rect class="d" x="1" y="1" width="6" height="6"/></g><g class="b" transform="translate(22 11)"><rect class="c" width="8" height="8"/><rect class="d" x="1" y="1" width="6" height="6"/></g><g class="b" transform="translate(0 22)"><rect class="c" width="8" height="8"/><rect class="d" x="1" y="1" width="6" height="6"/></g><g class="b" transform="translate(11 22)"><rect class="c" width="8" height="8"/><rect class="d" x="1" y="1" width="6" height="6"/></g><g class="a" transform="translate(22 22)"><rect class="c" width="8" height="8"/><rect class="d" x="1" y="1" width="6" height="6"/></g></svg>