<svg xmlns="http://www.w3.org/2000/svg" width="34.159" height="30" viewBox="0 0 34.159 30"><defs><style>.a{fill:#2171ce;}</style></defs><path class="a" d="M647.805,470.361h-.876v-7.883a1.317,1.317,0,0,0-1.314-1.314h-3.4l-.045-.407,1.355-1.491a.657.657,0,0,0-.352-1.085l-1.973-.409-1-1.751a.657.657,0,0,0-1.141,0l-.616,1.078c-.008,0-.016-.007-.025-.009l-2.977-.618-1.508-2.641a.657.657,0,0,0-1.141,0l-1.508,2.641-2.978.618a.717.717,0,0,0-.1.036l-.631-1.105a.657.657,0,0,0-1.141,0l-1,1.751-1.974.409a.657.657,0,0,0-.352,1.085l1.356,1.491-.045.407H621.09a1.318,1.318,0,0,0-1.314,1.314v19.708a1.318,1.318,0,0,0,1.314,1.314h24.525a1.317,1.317,0,0,0,1.314-1.314v-3.942h.876a.439.439,0,0,0,.438-.438V470.8A.439.439,0,0,0,647.805,470.361Zm-9.918-11.212.731-.151a.656.656,0,0,0,.437-.318l.575-1.009.576,1.009a.657.657,0,0,0,.437.318l1.137.236-.781.859a.658.658,0,0,0-.167.514l.128,1.154-1.059-.477a.656.656,0,0,0-.541,0l-1.059.477.127-1.154a.656.656,0,0,0-.167-.514l-.616-.678Zm-6.045-1.45a.659.659,0,0,0,.437-.318l1.085-1.9,1.084,1.9a.66.66,0,0,0,.437.318l2.14.444-1.471,1.618a.657.657,0,0,0-.167.514l.24,2.174-1.994-.9a.655.655,0,0,0-.54,0l-1.994.9.24-2.174a.657.657,0,0,0-.167-.514l-1.471-1.618ZM625.99,459a.656.656,0,0,0,.437-.318l.576-1.009.576,1.009a.656.656,0,0,0,.437.318l.666.138.181.038.172.189-.663.73a.658.658,0,0,0-.167.514l.127,1.154-1.058-.477a.656.656,0,0,0-.541,0l-1.059.477.127-1.154a.657.657,0,0,0-.167-.514l-.78-.859Zm13.275,20.56H627.44v-1.314h11.825Zm5.037-5.693a.439.439,0,0,1-.438.438H622.842a.44.44,0,0,1-.438-.438V464.23a.439.439,0,0,1,.438-.438h21.022a.439.439,0,0,1,.438.438Zm7.006-19.133a2.626,2.626,0,0,0-1.314,4.9v16.121a2.627,2.627,0,0,0,2.628-2.628V459.633a2.626,2.626,0,0,0-1.314-4.9ZM637.44,472.989h5.548v-7.883H637.44Zm1.431-5.064h2.808l.567.932-1.971,1.7-1.971-1.7Zm-8.292,5.064h5.547v-7.883h-5.547Zm1.37-5.064h2.808l.567.932-1.971,1.7-1.971-1.7Zm-8.231,5.064h5.548v-7.883h-5.548Zm1.309-5.064h2.808l.567.932-1.971,1.7-1.971-1.7Z" transform="translate(-619.776 -453.5)"/></svg>