<svg xmlns="http://www.w3.org/2000/svg" width="31" height="30.999" viewBox="0 0 31 30.999"><defs><style>.a{fill:#2171ce;stroke:rgba(0,0,0,0);stroke-miterlimit:10;}</style></defs><path class="a" d="M0,15A15,15,0,1,1,15,30,15,15,0,0,1,0,15Zm6.693,8.308a11.676,11.676,0,0,0,6.121,3.238l-.72,1.972h5.817l-.778-1.961a11.655,11.655,0,0,0,6.174-3.248q.312-.312.6-.641l1.348,1.61,2.909-5.039-2.083-.305a11.834,11.834,0,0,0,.019-7.811l2.065-.362-2.91-5.037L23.942,7.378c-.2-.235-.413-.465-.635-.686A11.654,11.654,0,0,0,17.19,3.454l.719-1.972H12.092l.778,1.961A11.654,11.654,0,0,0,6.693,6.692q-.312.312-.6.643L4.747,5.725,1.839,10.763l2.084.305A11.854,11.854,0,0,0,3.9,18.879l-2.063.362,2.91,5.037L6.06,22.624C6.261,22.858,6.472,23.087,6.693,23.307ZM7.6,22.4A10.467,10.467,0,1,1,15,25.464,10.4,10.4,0,0,1,7.6,22.4ZM8.717,8.716A8.888,8.888,0,1,0,15,6.114,8.827,8.827,0,0,0,8.717,8.716Zm5.452,13V20.124A4.729,4.729,0,0,1,11.9,19.4l-.182-.131.579-1.618.316.212a3.852,3.852,0,0,0,2.088.623c.936,0,1.564-.5,1.564-1.237,0-.671-.458-1.13-1.582-1.585-1.436-.563-2.766-1.315-2.766-2.982a2.812,2.812,0,0,1,2.36-2.763V8.281h1.564V9.815a4.373,4.373,0,0,1,1.888.571l.216.127-.6,1.592-.3-.173a3.5,3.5,0,0,0-1.824-.492c-1,0-1.361.542-1.361,1.048,0,.606.394.945,1.757,1.508,1.827.745,2.608,1.684,2.608,3.137a2.988,2.988,0,0,1-2.472,2.9v1.68Z" transform="translate(0.5 0.5)"/></svg>