<svg xmlns="http://www.w3.org/2000/svg" width="31.502" height="30.999" viewBox="0 0 31.502 30.999"><defs><style>.a{fill:#2171ce;stroke:rgba(0,0,0,0);stroke-miterlimit:10;}</style></defs><path class="a" d="M9.478,28.885A15.269,15.269,0,0,1,4.5,25.642a15.013,15.013,0,0,1-3.335-4.876,14.8,14.8,0,0,1,0-11.533A15.019,15.019,0,0,1,4.5,4.358,15.35,15.35,0,0,1,15.252,0l.074,0A15.329,15.329,0,0,1,26.072,4.431a14.994,14.994,0,0,1,3.283,4.852,14.809,14.809,0,0,1,0,11.431,15,15,0,0,1-3.283,4.853,15.255,15.255,0,0,1-4.92,3.267A15.429,15.429,0,0,1,15.326,30h-.074A15.425,15.425,0,0,1,9.478,28.885ZM1.526,20.62a14.655,14.655,0,0,0,3.252,4.752,14.951,14.951,0,0,0,10.474,4.246h.062V26.646h-.062a11.96,11.96,0,0,1-4.483-.865q-.146-.059-.29-.121L9.394,28.239A14.474,14.474,0,0,1,4.7,25.17l2.072-2.04a11.641,11.641,0,0,1-2.457-3.653l-.009-.022L1.515,20.594Zm19.52,7.844a14.858,14.858,0,0,0,4.542-2.96l-2.137-2.1a11.893,11.893,0,0,1-3.561,2.317ZM11.257,5.394a10.567,10.567,0,0,0-3.44,2.245,10.453,10.453,0,0,0-2.309,3.371,10.271,10.271,0,0,0,0,7.98,10.451,10.451,0,0,0,2.309,3.373,10.618,10.618,0,0,0,7.435,3.014H15.3a10.605,10.605,0,0,0,7.434-3.065,10.389,10.389,0,0,0,2.27-3.359,10.243,10.243,0,0,0,0-7.906,10.372,10.372,0,0,0-2.27-3.357A10.593,10.593,0,0,0,15.3,4.625h-.051A10.672,10.672,0,0,0,11.257,5.394ZM28.711,20.93a14.126,14.126,0,0,1-2.367,3.8A14.566,14.566,0,0,0,29,20.57,14.339,14.339,0,0,0,30.115,15q0-.11,0-.22H27.092c0,.073,0,.146,0,.22a11.454,11.454,0,0,1-.891,4.438c-.057.134-.115.267-.177.4ZM3.41,15.085c0-.029,0-.057,0-.086a11.453,11.453,0,0,1,.907-4.477q.062-.147.129-.293L1.808,9.155A14.139,14.139,0,0,1,4.954,4.55L7.043,6.605a11.877,11.877,0,0,1,3.614-2.343L9.5,1.517a14.9,14.9,0,0,0-4.721,3.11A14.677,14.677,0,0,0,1.526,9.378,14.378,14.378,0,0,0,.388,15c0,.029,0,.057,0,.086ZM26.2,10.562l.013.031,2.792-1.137L29,9.43A14.6,14.6,0,0,0,25.8,4.7,14.932,14.932,0,0,0,15.363.382V3.354a11.954,11.954,0,0,1,4.47.9q.157.065.311.134L21.236,1.8a14.431,14.431,0,0,1,4.655,3.084L23.8,6.94A11.648,11.648,0,0,1,26.2,10.562ZM10.869,18a1.343,1.343,0,0,1-.587-.427,1.257,1.257,0,0,1-.265-.619,11.37,11.37,0,0,1-.041-1.172v-.929a10.981,10.981,0,0,1,.041-1.157,1.251,1.251,0,0,1,.253-.622,1.37,1.37,0,0,1,.574-.432,2.2,2.2,0,0,1,.847-.15,2.254,2.254,0,0,1,.821.141,1.359,1.359,0,0,1,.586.427,1.236,1.236,0,0,1,.262.62,10.454,10.454,0,0,1,.044,1.172v.929a11.183,11.183,0,0,1-.042,1.156,1.246,1.246,0,0,1-.252.622,1.355,1.355,0,0,1-.576.433A2.427,2.427,0,0,1,10.869,18Zm.646-4.507a1.134,1.134,0,0,0-.063.5v2.537a2.24,2.24,0,0,0,.042.583.183.183,0,0,0,.193.111.186.186,0,0,0,.2-.128,2.476,2.476,0,0,0,.044-.607V14a1.559,1.559,0,0,0-.046-.485.182.182,0,0,0-.187-.105A.211.211,0,0,0,11.515,13.491Zm11.2,4.536v-1.8a1.209,1.209,0,0,0-.07-.539c-.047-.07-.17-.1-.373-.1v2.448H20.8V12.6h1.045a8.617,8.617,0,0,1,1.417.076.981.981,0,0,1,.6.393,1.711,1.711,0,0,1,.233,1.009,1.521,1.521,0,0,1-.165.849.891.891,0,0,1-.65.261,1.132,1.132,0,0,1,.59.278.84.84,0,0,1,.189.32,4.96,4.96,0,0,1,.036.8v1.433Zm-.443-3.3a.656.656,0,0,0,.346-.065c.065-.042.1-.183.1-.421v-.3a.44.44,0,0,0-.094-.337.566.566,0,0,0-.349-.08Zm-4.462,3.3V12.6h2.458v1.087h-.983v1.029h.923V15.75h-.923v1.191h1.079v1.086Zm-1.779,0L15.428,15.7v2.326H13.954V12.6h1.474v2.107l.666-2.107h1.378l-.844,2.449.928,2.974Zm-9.62,0V12.6H7.9a3.632,3.632,0,0,1,.927.091,1.052,1.052,0,0,1,.487.26.907.907,0,0,1,.22.415,3.521,3.521,0,0,1,.059.751v.472a1.859,1.859,0,0,1-.114.757.746.746,0,0,1-.411.365,2.025,2.025,0,0,1-.783.127h-.4v2.185Zm1.475-3.115c.04,0,.077,0,.108,0a.349.349,0,0,0,.281-.094.684.684,0,0,0,.079-.4v-.445a.509.509,0,0,0-.092-.363.6.6,0,0,0-.376-.083Z" transform="translate(0.5 0.5)"/></svg>